<?xml version="1.0" encoding="utf-8"?>
<!-- Generator: Adobe Illustrator 15.0.2, SVG Export Plug-In . SVG Version: 6.00 Build 0)  -->
<svg version="1.2" baseProfile="tiny" id="Layer_1" xmlns="http://www.w3.org/2000/svg" xmlns:xlink="http://www.w3.org/1999/xlink"
	 x="0px" y="0px" width="80px" height="80px" viewBox="0 0 80 80" xml:space="preserve">
<g>
	<polygon fill="#010101" points="14,63 13,64 7,64 6,63 6,61 14,61 	"/>
	<polygon fill="#010101" points="74,63 73,64 67,64 66,63 66,61 74,61 	"/>
	<path fill="#010101" d="M51,35c-6.631,0-12,5.378-12,12c0,6.623,5.369,12,12,12c6.629,0,12-5.377,12-12C63,40.378,57.629,35,51,35z
		 M51,56c-4.973,0-9-4.033-9-9s4.027-9,9-9c4.971,0,9,4.033,9,9S55.971,56,51,56z"/>
	<path fill="#010101" d="M70.932,29H9.069C3.689,29,1,31.727,1,37.182v20.455C1,58.387,1.605,59,2.345,59h39.684
		C38.375,56.264,36,51.912,36,47c0-8.277,6.712-15,15-15s15,6.723,15,15c0,4.912-2.375,9.264-6.029,12h17.686
		C78.395,59,79,58.387,79,57.637V37.182C79,31.727,76.311,29,70.932,29z M23,55H6v-2h17V55z M23,51H6v-2h17V51z M23,47H6v-2h17V47z
		 M23,43H6v-2h17V43z"/>
</g>
</svg>
